<?xml version="1.0" encoding="UTF-8" standalone="no"?>
<!-- Created with Inkscape (http://www.inkscape.org/) -->

<svg
   version="1.1"
   id="svg1"
   width="211.2"
   height="211.2"
   viewBox="0 0 211.2 211.2"
   xmlns="http://www.w3.org/2000/svg"
   xmlns:svg="http://www.w3.org/2000/svg">
  <defs
     id="defs1" />
  <g
     id="g1">
    <g
       id="g2">
      <path
         style="display:inline;fill:#e2532b"
         d="m 112.8,185.87553 c -1.056,-3.23154 -1.96345,-6.03939 -2.01656,-6.23966 -0.0851,-0.32078 7.81308,-7.1576 8.56815,-7.41681 0.4273,-0.14669 1.33882,1.7941 3.01044,6.40976 1.27278,3.51437 3.39797,10.48278 3.39797,11.1418 0,0.28435 -6.35286,1.55026 -8.99836,1.79307 l -2.04164,0.18738 z m 26.26625,-0.67911 c -0.061,-0.21803 -0.48796,-2.77242 -0.94878,-5.67642 -3.77897,-23.8142 -12.88249,-49.34951 -27.09454,-76 C 96.436438,76.167349 81.510791,55.632162 63.454172,38.073367 l -5.330113,-5.183161 0.77797,-0.597431 C 59.919797,31.511193 68.296989,27.2 68.797931,27.2 c 0.548872,0 8.344732,7.710562 12.779829,12.639999 14.973355,16.642301 30.97657,40.760556 43.20915,65.120001 9.38579,18.69045 15.46058,34.32258 19.98535,51.42782 2.6792,10.12833 5.10476,23.12618 4.49865,24.10689 -0.19344,0.31298 -7.75025,4.20713 -9.3289,4.80733 -0.54244,0.20624 -0.7971,0.17553 -0.87576,-0.10562 z M 85.708968,99.17534 C 84.915675,98.044902 82.720423,94.841692 80.830629,92.057095 73.895675,81.838491 67.405693,73.261294 61.417049,66.399999 56.958315,61.291548 48.67525,52.822531 44.8044,49.4144 c -1.583172,-1.393921 -2.879823,-2.768094 -2.881447,-3.053719 -0.005,-0.882227 7.088014,-7.320682 8.064951,-7.320682 1.436857,0 14.283985,12.801168 21.466425,21.389629 2.15738,2.579704 5.593016,6.922371 7.634748,9.650371 5.950616,7.95074 14.670922,21.086609 14.670922,22.099605 0,0.356455 -3.936888,5.859259 -5.691798,7.955736 l -0.916883,1.09534 z M 61.038965,97.577605 C 56.947869,93.885242 52.067756,87.489706 49.621523,82.614702 c -2.585504,-5.15255 -4.181524,-11.391159 -4.181524,-16.34497 0,-1.600353 0.1197,-2.909733 0.266,-2.909733 0.344032,0 5.742448,5.81283 9.943321,10.706629 4.734208,5.515107 13.470679,16.880224 13.470679,17.523764 0,0.363192 -4.868679,7.002664 -5.549089,7.567354 -0.304318,0.252562 -0.942885,-0.145957 -2.531945,-1.580141 z"
         id="path8" />
      <path
         style="display:inline;fill:#4eb153"
         d="m 97.759999,192.11189 c -0.528,-0.0617 -1.86,-0.19561 -2.96,-0.29753 -1.1,-0.10191 -2,-0.29133 -2,-0.42091 0,-0.12958 0.54,-0.54223 1.2,-0.91699 0.66,-0.37477 2.856,-1.76162 4.88,-3.08189 2.024001,-1.32028 3.774061,-2.30017 3.889031,-2.17754 0.20917,0.22311 1.6006,4.56504 1.99423,6.22297 l 0.20893,0.88 -3.12609,-0.0479 c -1.71936,-0.0264 -3.558101,-0.0984 -4.086101,-0.16016 z m -23.455118,-5.37297 c -1.988314,-0.76037 -3.710634,-1.47801 -3.827378,-1.59475 -0.116743,-0.11675 0.64606,-1.85957 1.695118,-3.87294 l 1.907378,-3.66068 4.383907,-2.39354 c 11.945883,-6.52228 22.852854,-14.80521 34.094884,-25.89223 3.38734,-3.34063 6.22415,-6.00851 6.30403,-5.92863 0.58901,0.58901 4.01718,10.87819 4.01718,12.05703 0,1.2216 -11.92312,12.04639 -19.68,17.86711 -4.0721,3.05569 -8.314422,5.93033 -12.84813,8.70603 -4.777544,2.92498 -11.023262,6.14316 -11.866541,6.11438 -0.310932,-0.0106 -2.192133,-0.64141 -4.180448,-1.40178 z m -15.760284,-7.95791 c -5.924657,-3.95485 -6.118821,-4.11991 -5.898219,-5.01413 0.406803,-1.64898 9.236529,-17.75188 14.479726,-26.40688 9.13799,-15.08418 25.18237,-38.35284 30.890833,-44.8 1.002852,-1.13263 1.187118,-1.22474 1.600413,-0.8 0.86298,0.88687 5.7143,10.28383 5.54157,10.73397 -0.0939,0.24483 -1.95296,2.78984 -4.13114,5.65559 -13.280528,17.47269 -26.080606,37.88213 -36.547781,58.27461 -1.232,2.40022 -2.390931,4.36669 -2.575402,4.36993 -0.18447,0.003 -1.69647,-0.90265 -3.36,-2.01309 z m 104.525663,-8.27828 c -0.0699,-0.2325 -0.52039,-2.15073 -1.00109,-4.26273 -0.4807,-2.112 -1.34933,-5.33934 -1.93029,-7.17186 l -1.05628,-3.33185 4.1891,-4.42815 c 2.30401,-2.43548 4.29995,-4.42814 4.43544,-4.42814 0.67739,0 4.44936,12.28964 4.45184,14.50478 8.1e-4,0.72151 -0.72819,1.65177 -3.59898,4.59253 -4.06553,4.16462 -5.2938,5.17713 -5.48974,4.52542 z M 41.066033,164.14681 c -1.906318,-2.11925 -3.597838,-4.1959 -3.758932,-4.61476 -0.234639,-0.6101 -0.04977,-1.22807 0.929416,-3.10682 6.95239,-13.33944 18.705275,-32.21286 29.161994,-46.82993 3.361897,-4.69947 7.244451,-9.755301 7.491446,-9.755301 0.421588,0 6.433877,9.664201 6.27304,10.083341 -0.09341,0.24342 -2.055629,3.11488 -4.360483,6.38101 C 66.011076,131.59652 53.243721,152.49231 46.438408,166 c -0.554192,1.1 -1.209833,2 -1.456981,2 -0.247148,0 -2.009075,-1.73394 -3.915394,-3.85319 z m 41.813966,-2.42205 c 0,-0.61976 8.288321,-14.11011 11.774612,-19.16476 6.907529,-10.01498 13.502149,-19.02116 14.732739,-20.12029 0.67107,-0.59939 0.67382,-0.5965 1.82272,1.92 3.1733,6.9506 3.74326,8.42453 3.55216,9.18597 -0.2354,0.93789 -10.74452,11.80363 -15.182593,15.6978 -4.317099,3.78802 -8.524234,7.10958 -12.539638,9.90012 -4.010238,2.78695 -4.16,2.87987 -4.16,2.58116 z M 178.72096,150 c -0.3192,-1.1 -1.42952,-4.10843 -2.46739,-6.68539 l -1.88702,-4.68538 3.58036,-4.83462 c 1.96919,-2.65904 3.68077,-4.83461 3.80351,-4.83461 0.21638,0 3.67629,7.09499 4.48918,9.20565 0.36235,0.94083 0.31319,1.24558 -0.49039,3.04 C 183.87405,145.3929 180.06559,152 179.52714,152 c -0.1242,0 -0.48698,-0.9 -0.80618,-2 z M 28.863591,147.76 c -3.488955,-6.30835 -7.908812,-16.82145 -7.319663,-17.4106 0.10402,-0.10402 1.31119,0.73886 2.6826,1.87307 1.371409,1.1342 4.581472,3.62136 7.133472,5.527 2.601965,1.94296 4.639999,3.69008 4.639999,3.97767 0,0.7529 -4.703612,8.99286 -5.133391,8.99286 -0.201262,0 -1.10262,-1.332 -2.003017,-2.96 z m 122.653439,-1.11506 c -0.4546,-1.54272 -1.25191,-4.03172 -1.77179,-5.53111 -0.51988,-1.49939 -0.94524,-2.92311 -0.94524,-3.16382 0,-0.24071 0.91495,-1.46194 2.03323,-2.71384 13.91552,-15.57826 27.61741,-37.028771 35.10596,-54.958875 0.90902,-2.176513 1.76724,-4.080756 1.90714,-4.231651 0.38047,-0.410354 0.79923,0.567631 2.04592,4.778071 1.17992,3.984947 2.42775,9.581302 2.42775,10.888158 0,0.994189 -3.69252,8.707527 -7.05057,14.728007 -6.40734,11.48738 -14.61891,23.23788 -22.67005,32.44012 -3.74995,4.28609 -9.0872,9.94448 -9.67867,10.26102 -0.5133,0.27471 -0.66853,-0.001 -1.40368,-2.49608 z M 36.317998,129.99563 C 31.288252,126.23041 27.042404,122.79606 21.92,118.34948 l -3.84,-3.33337 -0.21321,-2.38805 c -0.346146,-3.87701 -0.340559,-10.92229 0.0089,-11.27179 0.211318,-0.21132 0.634493,-0.0624 1.257591,0.44262 0.516507,0.41861 4.162808,3.41562 8.102892,6.66002 3.940084,3.2444 9.933231,7.97001 13.318105,10.50136 3.384874,2.53135 6.223707,4.71473 6.308519,4.85196 0.232515,0.37621 -5.391841,9.13492 -5.922359,9.22278 -0.253262,0.0419 -2.333377,-1.32578 -4.622478,-3.03938 z m 108.309292,-3.16962 c -0.18515,-0.49831 -1.28197,-3.10447 -2.43738,-5.79147 -1.85899,-4.32326 -2.05062,-4.95552 -1.66532,-5.49433 0.23947,-0.33489 1.94245,-2.60043 3.78439,-5.03455 11.28596,-14.914365 21.3084,-32.509036 28.95178,-50.825661 1.17509,-2.816 2.2716,-5.25626 2.43669,-5.422801 0.37009,-0.373359 0.58095,-0.111072 3.84496,4.782801 1.40862,2.112 2.64871,4.185022 2.75577,4.606716 0.21906,0.862865 -0.11098,1.888042 -2.94678,9.153284 -5.74854,14.727613 -14.37216,29.926651 -24.91664,43.915321 -3.88076,5.14834 -8.50397,10.69441 -9.07299,10.88409 -0.21881,0.0729 -0.54932,-0.2751 -0.73448,-0.7734 z M 189.68047,124.08 c -0.46907,-0.924 -1.16508,-2.20198 -1.54668,-2.83996 l -0.69382,-1.15996 1.91195,-3.16004 c 1.05157,-1.73802 2.31872,-3.8766 2.8159,-4.75239 0.49717,-0.87578 0.96179,-1.41882 1.03248,-1.20675 0.4154,1.24619 -1.81941,14.7991 -2.4403,14.7991 -0.12467,0 -0.61046,-0.756 -1.07953,-1.68 z M 49.806967,114.50813 C 44.702382,110.96678 36.95313,100.9227 32.9556,92.666489 29.521131,85.573182 27.086946,77.011496 26.660967,70.526564 l -0.193172,-2.940761 1.683487,-3.152902 c 1.682102,-3.150309 6.634008,-10.672902 7.025663,-10.672902 0.113976,0 0.696787,0.4087 1.295134,0.908223 l 1.087905,0.908223 -0.528359,3.011777 c -0.798403,4.551093 -0.930318,7.156082 -0.560804,11.074443 1.142279,12.112849 7.511305,24.174743 18.328844,34.711835 l 3.176862,3.0945 -2.820212,4.1855 c -1.551117,2.30202 -2.967836,4.1782 -3.148264,4.16928 -0.180428,-0.009 -1.170916,-0.60096 -2.201084,-1.31565 z m 83.226183,-13.47407 c -1.54377,-3.032735 -2.80377,-5.677238 -2.8,-5.876676 0.004,-0.199437 1.67728,-2.863437 3.71892,-5.92 9.64136,-14.434187 17.46171,-29.261462 24.02833,-45.557385 1.13473,-2.816 2.1717,-5.231142 2.30436,-5.366983 0.43495,-0.445366 8.35524,6.725516 8.35524,7.564674 0,1.669857 -5.01176,14.033421 -9.1132,22.481461 -4.80469,9.896579 -8.95873,17.197801 -15.1241,26.582426 -2.5293,3.849977 -8.13235,11.620073 -8.37381,11.612483 -0.10389,-0.003 -1.45197,-2.48727 -2.99574,-5.52 z m -111.72852,-9.095603 -2.176771,-1.806809 0.19639,-1.432814 c 0.300661,-2.193566 0.834364,-3.937463 1.146065,-3.744821 0.154246,0.09533 0.375721,0.607106 0.492167,1.137283 0.116446,0.530177 0.779408,2.420643 1.473248,4.201035 0.69384,1.780393 1.21296,3.285645 1.153599,3.345006 -0.05936,0.05936 -1.087475,-0.705136 -2.284698,-1.69888 z m 100.34651,-11.64173 -3.26821,-5.47682 2.79503,-4.369954 c 7.84182,-12.260482 14.66507,-25.816686 19.7812,-39.300634 0.7718,-2.034131 1.46871,-3.763858 1.54869,-3.843838 0.17971,-0.179715 5.46777,2.443893 7.9972,3.967717 2.21846,1.336483 2.27385,0.616395 -0.63281,8.226193 -4.86468,12.736012 -11.24976,25.58882 -18.53036,37.300608 -2.95027,4.745883 -5.6915,8.729872 -6.1005,8.866206 -0.17711,0.05904 -1.79272,-2.357227 -3.59024,-5.369478 z M 110.76228,62.944122 C 109.68303,61.307389 108.8,59.746055 108.8,59.474491 c 0,-0.271564 1.38887,-1.776419 3.08638,-3.344122 3.23774,-2.990153 12.25333,-10.357548 12.6846,-10.365653 0.40437,-0.0076 -4.04564,8.536257 -7.03303,13.503161 -2.8572,4.750461 -4.16468,6.652122 -4.57365,6.652122 -0.13186,0 -1.12276,-1.339145 -2.20202,-2.975877 z m -11.362401,-15.785236 -3.48012,-4.648685 2.29043,-2.090432 c 6.031241,-5.504598 14.232211,-11.78381 21.363991,-16.357701 5.20794,-3.340053 4.47884,-3.197122 9.42426,-1.847519 2.34804,0.640779 4.38373,1.279623 4.52376,1.419652 0.24837,0.248369 -1.50188,5.586725 -2.08174,6.349436 -0.16042,0.211001 -1.61215,1.19918 -3.22606,2.195955 -6.3948,3.949496 -15.39344,10.798917 -21.55167,16.404288 -1.96749,1.790866 -3.62349,3.248823 -3.68,3.239905 -0.0565,-0.0089 -1.66879,-2.108123 -3.582851,-4.664899 z M 88.95831,34.32 c -0.378477,-0.484 -2.860906,-3.160683 -5.516508,-5.948185 -3.69747,-3.881117 -4.7222,-5.134057 -4.375085,-5.34943 0.546098,-0.338836 7.863827,-2.105401 9.906205,-2.391446 1.399809,-0.196051 1.540186,-0.136249 3.84,1.635876 3.090191,2.381153 6.067077,4.964975 6.067077,5.26599 0,0.130255 -1.548,1.532024 -3.44,3.115044 -1.892,1.583019 -3.789102,3.254852 -4.215781,3.715184 -0.983121,1.06066 -1.409172,1.052569 -2.265908,-0.04303 z M 105.3553,20.342166 c -1.03288,-0.948659 -1.11825,-1.127606 -0.62826,-1.316937 0.66644,-0.257513 5.35837,0.130816 5.34127,0.442073 -0.016,0.291605 -2.70424,1.972698 -3.15453,1.972698 -0.19975,0 -0.90107,-0.494025 -1.55848,-1.097834 z"
         id="path7" />
      <path
         style="display:inline;fill:#2a2724"
         d="M 98.239999,200.42361 C 60.413855,197.67652 26.350483,171.21209 14.49416,135.36 11.189696,125.36769 9.962389,118.39701 9.6932125,108.09224 9.191896,88.900558 13.661805,72.186969 23.667636,55.839999 26.488739,51.231039 31.295385,45.11959 35.91036,40.27389 45.177579,30.543357 57.931231,22.077136 70.719999,17.166304 c 7.939837,-3.048864 16.830024,-5.119013 25.657273,-5.974496 5.729618,-0.555279 17.726368,-0.248418 23.152808,0.592219 28.07059,4.348551 51.21526,18.965011 66.5958,42.056976 7.74745,11.631831 12.83378,25.273516 14.88388,39.918996 0.63888,4.564061 0.54598,18.610241 -0.15662,23.680001 -1.52904,11.03301 -4.32504,20.09821 -9.21422,29.87433 -7.98016,15.95665 -20.11453,29.25151 -35.30688,38.68354 -15.59822,9.684 -33.50644,14.77328 -51.32622,14.58622 -2.9292,-0.0308 -5.973821,-0.10297 -6.765821,-0.16048 z m 7.184221,-7.82132 c 0.18984,-0.17643 -0.0919,-1.63627 -0.74931,-3.88252 -1.03377,-3.53223 -1.42792,-4.39977 -1.99894,-4.39977 -0.15711,0 -1.90348,1.04119 -3.880817,2.31376 -1.977335,1.27257 -4.099154,2.63571 -4.715154,3.02921 -3.726336,2.38033 -3.437761,2.64059 3.49923,3.15586 1.132577,0.0841 2.135753,0.22948 2.229281,0.32301 0.26179,0.2618 5.27137,-0.21952 5.61571,-0.53955 z m 14.93819,-0.79023 c 2.69724,-0.45537 5.15911,-0.96443 5.47083,-1.13126 0.80625,-0.43149 0.71605,-1.61263 -0.41534,-5.43919 -2.1263,-7.19151 -4.34737,-12.91279 -5.37334,-13.84128 -0.59575,-0.53915 -0.67621,-0.50878 -2.17223,0.81989 -0.85446,0.75888 -3.04266,2.58568 -4.86265,4.05956 -2.70328,2.18918 -3.27924,2.8043 -3.14607,3.36 0.17319,0.72272 3.08529,9.35168 3.92833,11.64022 0.33842,0.91867 0.69008,1.36 1.08369,1.36 0.32049,0 2.78954,-0.37258 5.48678,-0.82794 z m -35.899087,-5.68782 c 8.756174,-4.70783 17.065857,-10.33138 25.136677,-17.01116 4.70083,-3.89062 12.99849,-11.58597 13.78172,-12.78133 0.40996,-0.62567 0.35707,-1.03512 -0.50064,-3.87566 -1.43525,-4.75328 -3.38295,-9.85005 -3.81978,-9.99566 -0.21233,-0.0708 -3.21999,2.66873 -6.68368,6.0878 -11.53558,11.38695 -23.682377,20.56504 -35.097621,26.51965 l -3.52,1.83617 -1.8542,3.41897 c -2.26362,4.17391 -2.498453,5.06573 -1.477742,5.61199 1.64068,0.87807 7.233728,2.84577 8.115266,2.85505 0.586382,0.006 2.826442,-1.00254 5.92,-2.66582 z m 57.003277,-0.6051 c 2.86092,-1.25467 8.03327,-4.04844 8.3898,-4.53164 0.36224,-0.49093 -0.002,-4.36803 -0.91994,-9.7875 -2.00204,-11.82225 -7.90377,-31.90756 -12.59956,-42.88 -0.48959,-1.144 -1.4283,-3.376 -2.08603,-4.96 -0.65773,-1.584 -1.45932,-3.456 -1.78131,-4.16 -0.32199,-0.704 -1.53455,-3.368 -2.69458,-5.92 -3.36084,-7.39367 -10.61024,-21.106479 -15.01957,-28.410703 -0.98633,-1.633885 -2.10269,-3.577885 -2.4808,-4.32 -0.37812,-0.742114 -1.22175,-2.141298 -1.87475,-3.109298 -0.65299,-0.968 -3.03924,-4.568 -5.30277,-8 -4.02863,-6.108267 -5.292811,-7.915193 -9.850834,-14.08 C 91.521765,50.322559 85.919137,43.414053 82.330756,39.434115 78.637144,35.337462 70.704252,27.414108 69.518236,26.637 c -0.701421,-0.459589 -0.975012,-0.370375 -4.970259,1.620723 -4.820736,2.402494 -7.267978,3.932815 -7.267978,4.544846 0,0.232242 1.671548,1.982672 3.714551,3.889844 5.583609,5.212378 13.623437,13.893007 18.853763,20.35647 8.9806,11.097928 17.306546,23.507192 26.711687,39.811982 3.28677,5.697965 12.19934,23.495775 14.41062,28.777045 6.08346,14.52937 8.87753,22.48531 12.40486,35.32209 0.82848,3.01502 2.83094,12.01213 3.24058,14.56 1.24164,7.72279 1.95959,11.04 2.38942,11.04 0.0482,0 1.15574,-0.46839 2.46112,-1.04086 z M 63.966887,178.8 c 0.752349,-1.452 2.096639,-4.08 2.987311,-5.84 0.890672,-1.76 1.863956,-3.56 2.162853,-4 0.298897,-0.44 1.420438,-2.46893 2.492313,-4.50873 6.147275,-11.69838 21.201544,-34.65635 31.233376,-47.63134 1.69249,-2.18904 3.07726,-4.23678 3.07726,-4.55054 0,-0.77789 -4.74649,-9.66236 -5.83914,-10.9297 l -0.879139,-1.01969 -1.490728,1.6 c -2.661651,2.85675 -10.994984,14.2713 -17.871924,24.48 -2.430478,3.608 -4.808169,7.136 -5.28376,7.84 -2.561002,3.79096 -8.485181,13.37635 -10.976434,17.76 -1.05023,1.848 -2.681116,4.67473 -3.624192,6.28163 -0.943076,1.6069 -1.714684,2.98696 -1.714684,3.06682 0,0.0798 -1.236445,2.43553 -2.747655,5.23483 -2.976826,5.51416 -3.652345,6.95761 -3.652345,7.80436 0,0.52012 2.283415,2.29817 6.88,5.35732 3.467378,2.30764 3.571261,2.28893 5.246888,-0.94496 z M 167.71616,167.76546 c 4.55558,-4.42377 5.23499,-5.2989 5.14266,-6.62417 -0.11351,-1.62936 -2.30938,-9.43378 -3.49489,-12.42129 -0.68217,-1.71909 -1.28995,-2.8 -1.5744,-2.8 -0.25482,0 -1.28109,0.9 -2.2806,2 -0.99951,1.1 -3.03252,3.25852 -4.51781,4.79672 l -2.70052,2.79671 0.39246,1.20329 c 1.3588,4.16609 2.08482,6.73811 2.77852,9.84328 0.43251,1.936 0.85933,3.844 0.94849,4.24 0.31377,1.3935 1.36554,0.79199 5.30609,-3.03454 z M 47.647436,165.2 c 1.720105,-3.41772 2.754998,-5.31585 7.545828,-13.84 5.183685,-9.22315 15.023652,-24.60459 22.462799,-35.11295 1.025165,-1.44813 2.432803,-3.43529 3.128085,-4.41592 1.11825,-1.57718 1.225698,-1.88483 0.930987,-2.66561 -0.687612,-1.82169 -6.256807,-9.965521 -6.814968,-9.965521 -1.307773,0 -12.618521,15.931381 -23.334727,32.867371 -6.384668,10.09038 -15.405441,26.05054 -15.405441,27.25634 0,0.29664 4.332389,5.27605 7.061172,8.11573 0.803645,0.83631 1.702535,1.52056 1.997534,1.52056 0.364015,0 1.144428,-1.20819 2.428731,-3.76 z m 39.107351,-5.07653 c 5.162535,-3.58889 8.564717,-6.25294 13.085212,-10.24628 C 105.46846,144.90508 115.84,134.175 115.84,133.32406 c 0,-0.43724 -4.42928,-10.38917 -5.03601,-11.31515 -0.9695,-1.47966 -1.28536,-1.19762 -6.53038,5.83109 -7.173533,9.61305 -15.315511,21.9067 -21.174353,31.97135 -2.334929,4.01108 -1.738586,4.06199 3.65553,0.31212 z m 94.504233,-9.174 c 1.87856,-2.96842 5.94098,-10.98964 5.94098,-11.7304 0,-0.72641 -2.35911,-6.2131 -3.92951,-9.13907 -0.56677,-1.056 -1.24109,-1.92 -1.49849,-1.92 -0.53735,0 -7.95526,9.66748 -7.98942,10.41231 -0.0124,0.27077 0.67519,2.14277 1.52802,4.16 0.85284,2.01723 2.00903,5.14369 2.56932,6.94769 1.23534,3.97749 1.58275,4.10801 3.3791,1.26947 z M 33.873399,147.3571 c 3.302848,-5.79633 3.239524,-5.66657 2.986264,-6.11912 -0.125354,-0.224 -2.24206,-1.89972 -4.70379,-3.72382 -2.46173,-1.8241 -5.897242,-4.49501 -7.634471,-5.93536 -1.737229,-1.44034 -3.289749,-2.6188 -3.450043,-2.6188 -0.765039,0 -0.552798,1.33669 0.828558,5.21827 2.525364,7.0962 8.011783,17.64269 9.071758,17.43856 0.29777,-0.0573 1.578199,-1.93702 2.901724,-4.25973 z M 156.26633,146.8 c 8.34109,-8.62971 18.24887,-21.28912 24.23056,-30.96 5.39935,-8.72938 12.07957,-21.518944 12.37529,-23.693045 0.19082,-1.40281 -0.86069,-6.610384 -2.33577,-11.567821 -1.98747,-6.679533 -2.49717,-7.284039 -3.61731,-4.290185 -1.0092,2.697318 -5.07683,11.595347 -6.59699,14.43105 -0.7548,1.408 -1.8677,3.496 -2.47311,4.64 -6.91286,13.062731 -17.49421,28.193981 -27.6905,39.597211 -1.72517,1.92937 -2.04651,2.46497 -1.91992,3.2 0.0836,0.48553 0.92385,3.36679 1.86716,6.40279 1.46836,4.72583 1.80684,5.52 2.3527,5.52 0.38911,0 1.87308,-1.27825 3.80789,-3.28 z M 44.624544,129.08756 c 1.704467,-2.74585 3.026138,-5.1824 2.937047,-5.41456 -0.08909,-0.23217 -2.798895,-2.40118 -6.021787,-4.82002 -6.649433,-4.99053 -11.767538,-9.06287 -18.546113,-14.75664 -2.57747,-2.16499 -4.840403,-3.93634 -5.028741,-3.93634 -0.823201,0 -1.090524,1.49997 -1.05145,5.89974 0.02198,2.47514 0.149436,5.5746 0.283233,6.88769 l 0.243267,2.38743 3.84,3.33387 c 7.905294,6.86332 18.930934,15.41127 19.878346,15.41127 0.201942,0 1.761731,-2.2466 3.466198,-4.99244 z M 146.60466,127.44 c 7.87485,-8.32919 21.36174,-28.402252 27.25184,-40.560001 3.51412,-7.2535 5.54782,-11.991709 7.78732,-18.14327 l 1.75581,-4.82297 -1.49802,-2.43688 c -2.60654,-4.240143 -5.59624,-8.35688 -6.06903,-8.35688 -0.49212,0 -1.03873,0.917067 -2.02036,3.389593 -2.34379,5.903548 -3.24109,7.919236 -7.32301,16.450407 -2.17942,4.554941 -5.96391,11.58088 -9.13543,16.96 -2.49368,4.229433 -9.81288,15.163411 -12.59913,18.821521 -4.90482,6.43961 -5.23465,6.91171 -5.23465,7.49263 0,0.32292 0.34344,1.26634 0.7632,2.09649 0.64716,1.27986 3.16451,7.21508 4.06721,9.58936 0.38723,1.01847 0.95101,0.89842 2.25425,-0.48 z m 44.67244,-0.8 c 0.97509,-1.23638 3.19988,-15.51927 2.59378,-16.65178 -0.17282,-0.32291 -0.47326,-0.5341 -0.66765,-0.4693 -0.19438,0.0648 -1.08464,1.40555 -1.97833,2.97944 -0.8937,1.5739 -2.23388,3.79764 -2.97818,4.94164 -0.74431,1.144 -1.35631,2.28334 -1.36,2.53187 -0.004,0.24854 0.6324,1.54453 1.41354,2.88 0.78115,1.33547 1.56959,2.82413 1.75208,3.30813 0.36092,0.95719 0.73331,1.10313 1.22476,0.48 z M 53.335543,115.43604 c 0.382549,-0.56982 1.714549,-2.52832 2.96,-4.35222 1.245451,-1.8239 2.264456,-3.50501 2.264456,-3.7358 0,-0.23079 -1.022206,-1.3281 -2.27157,-2.43846 -2.429952,-2.15962 -6.654065,-6.895873 -8.938111,-10.021794 -4.889389,-6.691564 -8.434942,-14.595071 -9.765128,-21.767767 -0.692949,-3.736549 -0.511825,-12.750076 0.315085,-15.68 l 0.541879,-1.92 -1.381077,-1.199134 c -2.10656,-1.829042 -1.945518,-1.912928 -5.129904,2.672143 -2.088556,3.007229 -4.337461,6.768641 -5.287155,8.843046 -0.761574,1.663498 -0.801699,1.994046 -0.608458,5.012444 0.261474,4.084182 1.682136,10.478064 3.384301,15.231501 3.009127,8.40324 8.087648,16.677621 15.050212,24.521161 2.137749,2.40824 6.570461,5.8623 7.529926,5.86747 0.367463,0.002 0.93619,-0.43774 1.335544,-1.03259 z M 140.0597,102.32 c 11.99439,-16.572047 22.73004,-36.814144 28.59028,-53.907043 l 0.90068,-2.627043 -0.91984,-1.157468 c -0.91132,-1.146745 -4.96154,-4.910262 -6.93563,-6.444671 -0.56364,-0.438106 -1.26591,-0.74868 -1.5606,-0.690166 -0.36452,0.07238 -1.22045,1.845294 -2.67769,5.54639 -2.74646,6.975477 -7.86654,18.230415 -10.28741,22.613761 -1.03696,1.877568 -2.02129,3.771238 -2.18741,4.208154 -0.56672,1.490601 -8.10933,13.805103 -11.93631,19.48794 l -3.81825,5.669856 1.63858,3.130144 c 0.90122,1.72158 2.29019,4.462146 3.0866,6.090146 1.00993,2.06448 1.61849,2.96 2.0115,2.96 0.35895,0 1.84559,-1.77141 4.0955,-4.88 z M 91.038548,97.542412 C 92.922701,95.046739 94.531867,92.8287 94.614471,92.613437 94.834174,92.0409 93.802233,90.172474 90.249176,84.709665 80.147614,69.178558 69.570959,56.013697 58.828457,45.599999 c -4.891109,-4.741402 -8.164487,-7.52 -8.859075,-7.52 -0.315801,0 -1.212103,0.527795 -1.991783,1.172876 -2.703088,2.236447 -7.0176,6.656426 -7.0176,7.189143 0,0.294449 2.052,2.399689 4.56,4.678312 12.561687,11.412816 23.61766,24.843028 37.585913,45.65738 3.498642,5.21339 3.567377,5.30229 4.099677,5.30229 0.223974,0 1.948805,-2.04192 3.832959,-4.537588 z M 66.959999,96.166437 c 1.716,-2.255617 3.12,-4.277536 3.12,-4.493154 0,-0.327532 -5.03426,-7.318831 -6.345335,-8.812047 -0.222737,-0.25368 -0.977478,-1.236118 -1.677203,-2.183195 -4.570307,-6.185899 -16.181213,-18.905429 -16.869398,-18.480108 -1.012998,0.626068 -0.596914,7.912475 0.742472,13.002066 1.027688,3.905156 4.23713,10.447053 7.064611,14.4 2.485682,3.475095 9.760561,11.027871 10.413217,10.810991 0.2374,-0.0789 1.835636,-1.988936 3.551636,-4.244553 z M 24.959243,94.799999 c -4.16e-4,-0.132 -0.581637,-1.586428 -1.291601,-3.232061 -0.709965,-1.645633 -1.627957,-4.159744 -2.039982,-5.586912 -1.11827,-3.873453 -1.621247,-3.690458 -2.690167,0.978747 -0.61838,2.70118 -0.650346,3.915633 -0.103257,3.922994 0.11317,0.0015 1.285764,0.929284 2.605764,2.061691 2.131215,1.828335 3.521468,2.561354 3.519243,1.855541 z m 103.578767,-12.48 c 3.08237,-4.678907 4.96376,-7.686739 6.75536,-10.8 0.6077,-1.056 1.39786,-2.424 1.75592,-3.04 2.09171,-3.598556 6.26951,-11.947938 9.12679,-18.24 2.48227,-5.466247 6.78392,-16.633326 6.78392,-17.611041 0,-0.379445 -0.52892,-0.962398 -1.36,-1.498945 -1.84539,-1.19138 -8.55676,-4.570013 -9.07795,-4.570013 -0.54023,0 -0.77917,0.467581 -2.29937,4.499634 -5.17813,13.733996 -13.08281,29.287613 -20.71002,40.749966 -0.96396,1.448669 -1.75266,2.755628 -1.75266,2.904352 0,0.259132 2.70498,4.960073 4.44744,7.72912 0.45791,0.72769 1.22501,1.98769 1.70468,2.8 0.47967,0.81231 1.06453,1.476927 1.29969,1.476927 0.23517,0 1.73196,-1.98 3.3262,-4.4 z M 114.92097,64.718388 c 3.43915,-5.012291 11.01325,-19.002819 10.71225,-19.787198 -0.16741,-0.436278 -0.2855,-0.432457 -1.07069,0.03464 -2.98083,1.773256 -14.77937,11.767604 -16.13269,13.66572 -0.74481,1.044649 -0.73387,1.071061 2.18959,5.288444 1.12851,1.628 2.22481,2.959275 2.43621,2.958389 0.2114,-8.86e-4 1.05079,-0.972886 1.86533,-2.16 z m -8.24646,-15.222265 c 6.42787,-5.909727 12.70967,-10.757222 20.73721,-16.002351 4.5784,-2.991486 4.70695,-3.106455 5.32198,-4.759653 1.80438,-4.850161 1.84407,-5.013568 1.33969,-5.516744 -0.48248,-0.481341 -8.21681,-2.737375 -9.3845,-2.737375 -0.66373,0 -6.35892,3.433767 -10.28889,6.203414 -1.90757,1.344356 -6.17492,4.572601 -12.57851,9.515609 -2.503066,1.932152 -6.525874,5.959012 -6.410177,6.416638 0.207895,0.8223 7.151517,9.846461 7.583197,9.85537 0.23897,0.0049 1.89497,-1.333776 3.68,-2.974908 z M 91.544218,35.000332 c 0.426679,-0.461817 2.467781,-2.269271 4.535781,-4.016564 2.068,-1.747292 3.76,-3.295856 3.76,-3.441253 0,-0.316741 -3.03522,-2.988651 -6.546562,-5.762954 l -2.546562,-2.012031 -1.773438,0.203599 c -2.926234,0.335945 -9.884144,2.126367 -10.639061,2.737662 l -0.704332,0.570333 5.372677,5.608783 c 2.954972,3.08483 5.584378,5.911027 5.843123,6.280437 0.640246,0.91408 1.763215,0.844159 2.698374,-0.168012 z M 109.45756,20.788076 c 1.04634,-0.710558 1.90244,-1.491096 1.90244,-1.73453 0,-0.536728 -2.99447,-0.909335 -6.08,-0.756545 -1.64254,0.08134 -2.08,0.209756 -2.08,0.610604 0,0.683463 2.91622,3.172395 3.71702,3.172395 0.35095,0 1.49419,-0.581366 2.54054,-1.291924 z"
         id="path2" />
    </g>
  </g>
</svg>
